<svg width="163" height="53" viewBox="0 0 163 53" fill="none" xmlns="http://www.w3.org/2000/svg">
<path d="M54.3619 18.436C56.0191 18.436 57.4672 18.757 58.7064 19.3989C59.9605 20.026 60.9234 20.9367 61.5952 22.131C62.282 23.3105 62.6254 24.6915 62.6254 26.274C62.6254 27.8565 62.282 29.23 61.5952 30.3945C60.9234 31.559 59.9605 32.4548 58.7064 33.0818C57.4672 33.6939 56.0191 34 54.3619 34H49.2784V18.436H54.3619ZM54.3619 31.9173C56.1833 31.9173 57.5792 31.4247 58.5496 30.4393C59.52 29.454 60.0052 28.0655 60.0052 26.274C60.0052 24.4675 59.52 23.0567 58.5496 22.0415C57.5792 21.0263 56.1833 20.5187 54.3619 20.5187H51.8313V31.9173H54.3619ZM70.5078 34.2015C69.3433 34.2015 68.2908 33.9403 67.3502 33.4177C66.4096 32.8803 65.6706 32.1338 65.1332 31.1783C64.5957 30.2079 64.327 29.0882 64.327 27.8192C64.327 26.5651 64.6032 25.4529 65.1556 24.4824C65.708 23.512 66.4619 22.7656 67.4174 22.243C68.3729 21.7205 69.4403 21.4592 70.6198 21.4592C71.7992 21.4592 72.8667 21.7205 73.8221 22.243C74.7776 22.7656 75.5316 23.512 76.084 24.4824C76.6364 25.4529 76.9125 26.5651 76.9125 27.8192C76.9125 29.0733 76.6289 30.1855 76.0616 31.1559C75.4942 32.1263 74.7179 32.8803 73.7326 33.4177C72.7621 33.9403 71.6872 34.2015 70.5078 34.2015ZM70.5078 31.9845C71.1647 31.9845 71.7768 31.8278 72.3441 31.5142C72.9264 31.2007 73.3967 30.7304 73.755 30.1034C74.1133 29.4764 74.2924 28.715 74.2924 27.8192C74.2924 26.9234 74.1207 26.1695 73.7774 25.5574C73.434 24.9303 72.9786 24.46 72.4113 24.1465C71.844 23.833 71.2319 23.6762 70.575 23.6762C69.9181 23.6762 69.306 23.833 68.7386 24.1465C68.1863 24.46 67.7458 24.9303 67.4174 25.5574C67.0889 26.1695 66.9247 26.9234 66.9247 27.8192C66.9247 29.1479 67.2606 30.178 67.9325 30.9096C68.6192 31.6262 69.4777 31.9845 70.5078 31.9845ZM78.5853 27.8192C78.5853 26.5502 78.8391 25.4379 79.3467 24.4824C79.8692 23.512 80.5858 22.7656 81.4965 22.243C82.4072 21.7205 83.4523 21.4592 84.6317 21.4592C86.1247 21.4592 87.3564 21.8175 88.3268 22.5341C89.3121 23.2358 89.9765 24.2436 90.3199 25.5574H87.5654C87.3414 24.9453 86.9831 24.4675 86.4905 24.1241C85.9978 23.7808 85.3782 23.6091 84.6317 23.6091C83.5867 23.6091 82.7506 23.9823 82.1236 24.7288C81.5115 25.4603 81.2054 26.4905 81.2054 27.8192C81.2054 29.1479 81.5115 30.1855 82.1236 30.932C82.7506 31.6785 83.5867 32.0517 84.6317 32.0517C86.1098 32.0517 87.0876 31.4023 87.5654 30.1034H90.3199C89.9616 31.3575 89.2897 32.3578 88.3044 33.1042C87.3191 33.8358 86.0948 34.2015 84.6317 34.2015C83.4523 34.2015 82.4072 33.9403 81.4965 33.4177C80.5858 32.8803 79.8692 32.1338 79.3467 31.1783C78.8391 30.2079 78.5853 29.0882 78.5853 27.8192ZM97.3429 34.2015C96.3725 34.2015 95.4991 34.0299 94.7228 33.6865C93.9614 33.3282 93.3568 32.8504 92.9089 32.2532C92.461 31.6411 92.2221 30.9618 92.1923 30.2154H94.8348C94.8796 30.7379 95.1259 31.1783 95.5738 31.5366C96.0366 31.88 96.6114 32.0517 97.2981 32.0517C98.0148 32.0517 98.5671 31.9173 98.9553 31.6486C99.3584 31.3649 99.56 31.0066 99.56 30.5737C99.56 30.1109 99.336 29.7675 98.8881 29.5435C98.4552 29.3196 97.761 29.0733 96.8055 28.8045C95.8798 28.5507 95.1259 28.3044 94.5436 28.0655C93.9614 27.8267 93.4538 27.4609 93.0208 26.9682C92.6028 26.4755 92.3938 25.8261 92.3938 25.0199C92.3938 24.363 92.5879 23.7658 92.976 23.2284C93.3642 22.676 93.9166 22.243 94.6332 21.9295C95.3648 21.616 96.2008 21.4592 97.1414 21.4592C98.5448 21.4592 99.6719 21.8175 100.523 22.5341C101.389 23.2358 101.852 24.1988 101.911 25.423H99.3584C99.3136 24.8706 99.0897 24.4302 98.6866 24.1017C98.2835 23.7733 97.7386 23.6091 97.0518 23.6091C96.38 23.6091 95.8649 23.736 95.5066 23.9898C95.1483 24.2436 94.9691 24.5795 94.9691 24.9975C94.9691 25.326 95.0886 25.6022 95.3274 25.8261C95.5663 26.05 95.8574 26.2292 96.2008 26.3636C96.5442 26.483 97.0518 26.6398 97.7236 26.8338C98.6194 27.0727 99.3509 27.319 99.9183 27.5728C100.501 27.8117 101.001 28.17 101.419 28.6478C101.837 29.1255 102.053 29.76 102.068 30.5513C102.068 31.253 101.874 31.88 101.486 32.4324C101.098 32.9848 100.545 33.4177 99.8287 33.7313C99.127 34.0448 98.2984 34.2015 97.3429 34.2015ZM107.38 23.4747C107.813 22.9074 108.402 22.4296 109.149 22.0415C109.895 21.6533 110.739 21.4592 111.679 21.4592C112.754 21.4592 113.732 21.728 114.613 22.2654C115.509 22.7879 116.21 23.527 116.718 24.4824C117.226 25.4379 117.479 26.5352 117.479 27.7744C117.479 29.0135 117.226 30.1258 116.718 31.1111C116.21 32.0816 115.509 32.843 114.613 33.3954C113.732 33.9328 112.754 34.2015 111.679 34.2015C110.739 34.2015 109.903 34.0149 109.171 33.6417C108.44 33.2535 107.842 32.7758 107.38 32.2085V39.8673H104.827V21.6608H107.38V23.4747ZM114.882 27.7744C114.882 26.9234 114.702 26.1919 114.344 25.5798C114.001 24.9527 113.538 24.4824 112.956 24.1689C112.388 23.8405 111.776 23.6762 111.119 23.6762C110.477 23.6762 109.865 23.8405 109.283 24.1689C108.716 24.4974 108.253 24.9751 107.895 25.6022C107.551 26.2292 107.38 26.9682 107.38 27.8192C107.38 28.6702 107.551 29.4166 107.895 30.0586C108.253 30.6857 108.716 31.1634 109.283 31.4918C109.865 31.8203 110.477 31.9845 111.119 31.9845C111.776 31.9845 112.388 31.8203 112.956 31.4918C113.538 31.1485 114.001 30.6558 114.344 30.0138C114.702 29.3719 114.882 28.6254 114.882 27.7744ZM119.153 27.7744C119.153 26.5352 119.407 25.4379 119.914 24.4824C120.437 23.527 121.139 22.7879 122.019 22.2654C122.915 21.728 123.901 21.4592 124.976 21.4592C125.946 21.4592 126.789 21.6533 127.506 22.0415C128.238 22.4147 128.82 22.885 129.253 23.4523V21.6608H131.828V34H129.253V32.1637C128.82 32.7459 128.23 33.2311 127.484 33.6193C126.737 34.0075 125.886 34.2015 124.931 34.2015C123.871 34.2015 122.9 33.9328 122.019 33.3954C121.139 32.843 120.437 32.0816 119.914 31.1111C119.407 30.1258 119.153 29.0135 119.153 27.7744ZM129.253 27.8192C129.253 26.9682 129.074 26.2292 128.715 25.6022C128.372 24.9751 127.917 24.4974 127.349 24.1689C126.782 23.8405 126.17 23.6762 125.513 23.6762C124.856 23.6762 124.244 23.8405 123.677 24.1689C123.109 24.4824 122.647 24.9527 122.288 25.5798C121.945 26.1919 121.773 26.9234 121.773 27.7744C121.773 28.6254 121.945 29.3719 122.288 30.0138C122.647 30.6558 123.109 31.1485 123.677 31.4918C124.259 31.8203 124.871 31.9845 125.513 31.9845C126.17 31.9845 126.782 31.8203 127.349 31.4918C127.917 31.1634 128.372 30.6857 128.715 30.0586C129.074 29.4166 129.253 28.6702 129.253 27.8192ZM134.33 27.8192C134.33 26.5502 134.584 25.4379 135.092 24.4824C135.614 23.512 136.331 22.7656 137.242 22.243C138.152 21.7205 139.197 21.4592 140.377 21.4592C141.87 21.4592 143.101 21.8175 144.072 22.5341C145.057 23.2358 145.722 24.2436 146.065 25.5574H143.31C143.087 24.9453 142.728 24.4675 142.236 24.1241C141.743 23.7808 141.123 23.6091 140.377 23.6091C139.332 23.6091 138.496 23.9823 137.869 24.7288C137.257 25.4603 136.95 26.4905 136.95 27.8192C136.95 29.1479 137.257 30.1855 137.869 30.932C138.496 31.6785 139.332 32.0517 140.377 32.0517C141.855 32.0517 142.833 31.4023 143.31 30.1034H146.065C145.707 31.3575 145.035 32.3578 144.049 33.1042C143.064 33.8358 141.84 34.2015 140.377 34.2015C139.197 34.2015 138.152 33.9403 137.242 33.4177C136.331 32.8803 135.614 32.1338 135.092 31.1783C134.584 30.2079 134.33 29.0882 134.33 27.8192ZM159.918 27.5281C159.918 27.9909 159.888 28.4089 159.829 28.7821H150.401C150.475 29.7675 150.841 30.5587 151.498 31.1559C152.155 31.7531 152.961 32.0517 153.917 32.0517C155.29 32.0517 156.261 31.4769 156.828 30.3273H159.582C159.209 31.462 158.53 32.3951 157.544 33.1266C156.574 33.8432 155.365 34.2015 153.917 34.2015C152.737 34.2015 151.677 33.9403 150.737 33.4177C149.811 32.8803 149.079 32.1338 148.542 31.1783C148.019 30.2079 147.758 29.0882 147.758 27.8192C147.758 26.5502 148.012 25.4379 148.52 24.4824C149.042 23.512 149.766 22.7656 150.692 22.243C151.632 21.7205 152.707 21.4592 153.917 21.4592C155.081 21.4592 156.119 21.713 157.029 22.2206C157.94 22.7282 158.649 23.4448 159.157 24.3705C159.664 25.2812 159.918 26.3337 159.918 27.5281ZM157.253 26.7219C157.238 25.7813 156.902 25.0274 156.246 24.46C155.589 23.8927 154.775 23.6091 153.805 23.6091C152.924 23.6091 152.17 23.8927 151.543 24.46C150.916 25.0124 150.543 25.7664 150.423 26.7219H157.253Z" fill="#4F4F4F"/>
<g filter="url(#filter0_d)">
<circle cx="25.5" cy="26.5" r="17.5" fill="white"/>
</g>
<mask id="mask0" mask-type="alpha" maskUnits="userSpaceOnUse" x="10" y="11" width="32" height="32">
<circle cx="25.575" cy="26.575" r="15.575" fill="white"/>
</mask>
<g mask="url(#mask0)">
<g filter="url(#filter1_d)">
<path d="M41.15 26.575C41.15 35.1768 34.1768 42.15 25.575 42.15C16.9732 42.15 10 35.1768 10 26.575C10 17.9732 16.9732 11 25.575 11C34.1768 11 41.15 17.9732 41.15 26.575Z" fill="#263238"/>
</g>
<path d="M27.6729 14.0208C27.581 14.0229 27.4918 14.0491 27.4167 14.096C27.3416 14.143 27.2839 14.2086 27.2509 14.2846C27.2179 14.3606 27.2111 14.4435 27.2313 14.5229C27.2516 14.6023 27.298 14.6746 27.3647 14.7307C27.4314 14.7868 27.5153 14.8241 27.606 14.8379C27.6966 14.8517 27.7898 14.8415 27.8739 14.8084C27.9579 14.7754 28.029 14.721 28.0782 14.6522C28.1273 14.5834 28.1523 14.5032 28.15 14.4219C28.1484 14.3678 28.1349 14.3145 28.1101 14.2651C28.0852 14.2157 28.0497 14.1711 28.0054 14.1338C27.9611 14.0966 27.9089 14.0674 27.8519 14.048C27.7948 14.0286 27.734 14.0194 27.6729 14.0208V14.0208Z" fill="white"/>
<path d="M29.4033 34.1884C29.3113 34.1903 29.2221 34.2163 29.1468 34.2632C29.0715 34.31 29.0136 34.3756 28.9805 34.4516C28.9473 34.5275 28.9404 34.6105 28.9605 34.69C28.9806 34.7694 29.027 34.8418 29.0936 34.898C29.1602 34.9542 29.2442 34.9916 29.3349 35.0055C29.4256 35.0194 29.5189 35.0092 29.603 34.9761C29.6871 34.9431 29.7582 34.8887 29.8074 34.8199C29.8566 34.7511 29.8816 34.6709 29.8793 34.5895C29.8779 34.5354 29.8644 34.4822 29.8397 34.4328C29.8151 34.3834 29.7796 34.3388 29.7354 34.3015C29.6912 34.2642 29.6391 34.2351 29.5821 34.2157C29.5251 34.1963 29.4644 34.187 29.4033 34.1884V34.1884Z" fill="white"/>
<path d="M40.4087 25.8503C40.3167 25.8523 40.2274 25.8783 40.1522 25.9251C40.0769 25.972 40.019 26.0375 39.9858 26.1135C39.9527 26.1895 39.9457 26.2725 39.9659 26.3519C39.986 26.4314 40.0323 26.5038 40.099 26.5599C40.1656 26.6161 40.2496 26.6535 40.3403 26.6674C40.4309 26.6813 40.5242 26.6711 40.6083 26.6381C40.6925 26.6051 40.7636 26.5507 40.8128 26.4819C40.862 26.413 40.887 26.3328 40.8847 26.2514C40.8815 26.1424 40.8297 26.0389 40.7404 25.9637C40.6512 25.8885 40.5319 25.8478 40.4087 25.8503V25.8503Z" fill="white"/>
<path d="M21.9495 35.7476C21.8575 35.7493 21.7681 35.7752 21.6927 35.8219C21.6172 35.8686 21.5592 35.9341 21.5259 36.0101C21.4925 36.0861 21.4854 36.1691 21.5055 36.2486C21.5255 36.3281 21.5717 36.4006 21.6383 36.4569C21.7049 36.5131 21.7889 36.5506 21.8796 36.5646C21.9703 36.5786 22.0637 36.5684 22.1478 36.5354C22.232 36.5024 22.3032 36.448 22.3525 36.3792C22.4017 36.3103 22.4267 36.2301 22.4244 36.1486C22.423 36.0947 22.4096 36.0415 22.385 35.9922C22.3603 35.9428 22.325 35.8983 22.2809 35.861C22.2368 35.8238 22.1848 35.7946 22.1279 35.7751C22.0711 35.7556 22.0105 35.7463 21.9495 35.7476V35.7476Z" fill="white"/>
<path d="M35.8833 34.9848C35.7914 34.9869 35.7022 35.0131 35.6271 35.06C35.552 35.107 35.4942 35.1726 35.4613 35.2486C35.4283 35.3246 35.4215 35.4075 35.4417 35.4869C35.462 35.5663 35.5084 35.6386 35.5751 35.6947C35.6417 35.7507 35.7257 35.788 35.8164 35.8019C35.907 35.8157 36.0002 35.8055 36.0843 35.7724C36.1683 35.7393 36.2394 35.685 36.2886 35.6162C36.3377 35.5474 36.3627 35.4672 36.3604 35.3858C36.359 35.3317 36.3455 35.2784 36.3207 35.2289C36.296 35.1794 36.2604 35.1348 36.2161 35.0975C36.1717 35.0603 36.1195 35.0311 36.0624 35.0118C36.0053 34.9924 35.9445 34.9832 35.8833 34.9848V34.9848Z" fill="white"/>
<path d="M20.01 24.3564C19.5026 24.0321 18.954 24.5426 19.3454 24.9743C19.8528 25.2939 20.4014 24.7844 20.01 24.3564Z" fill="white"/>
<path d="M15.3947 26.1795C15.3484 26.1405 15.2865 26.1195 15.2226 26.1209C15.1588 26.1224 15.0982 26.1462 15.0542 26.1872C15.0102 26.2281 14.9864 26.2829 14.9881 26.3394C14.9897 26.3959 15.0166 26.4495 15.0629 26.4884C15.0858 26.5077 15.1128 26.5228 15.1423 26.5329C15.1718 26.5429 15.2033 26.5477 15.2349 26.547C15.2665 26.5463 15.2977 26.5401 15.3266 26.5287C15.3555 26.5173 15.3815 26.501 15.4033 26.4808C15.4251 26.4605 15.4422 26.4366 15.4535 26.4105C15.4649 26.3843 15.4703 26.3565 15.4695 26.3285C15.4687 26.3006 15.4617 26.273 15.4488 26.2474C15.436 26.2218 15.4176 26.1988 15.3947 26.1795Z" fill="white"/>
<path d="M17.4557 18.2233C16.9483 17.899 16.4008 18.4095 16.7911 18.8413C17.2985 19.1656 17.8471 18.6551 17.4557 18.2233Z" fill="white"/>
<path d="M12.8403 20.0541C12.794 20.0151 12.7321 19.9941 12.6683 19.9955C12.6044 19.997 12.5438 20.0208 12.4998 20.0618C12.4558 20.1027 12.432 20.1575 12.4337 20.214C12.4353 20.2705 12.4622 20.3241 12.5085 20.363C12.5548 20.402 12.6167 20.423 12.6805 20.4216C12.7444 20.4202 12.805 20.3963 12.8489 20.3554C12.8929 20.3144 12.9167 20.2596 12.9151 20.2031C12.9135 20.1466 12.8866 20.093 12.8403 20.0541V20.0541Z" fill="white"/>
<path d="M24.6471 29.9695C24.601 29.9705 24.5562 29.9835 24.5184 30.007C24.4807 30.0305 24.4517 30.0634 24.4351 30.1015C24.4185 30.1396 24.4151 30.1812 24.4252 30.2211C24.4353 30.2609 24.4586 30.2972 24.492 30.3253C24.5255 30.3534 24.5676 30.3721 24.6131 30.3791C24.6586 30.386 24.7054 30.3808 24.7475 30.3642C24.7896 30.3475 24.8253 30.3202 24.8498 30.2857C24.8744 30.2511 24.8869 30.2109 24.8856 30.17C24.8839 30.1155 24.8578 30.0638 24.8131 30.0262C24.7684 29.9886 24.7087 29.9682 24.6471 29.9695V29.9695Z" fill="white"/>
<path d="M27.4604 23.8009C27.4142 23.8016 27.3694 23.8145 27.3315 23.8379C27.2936 23.8613 27.2644 23.8941 27.2477 23.9322C27.2309 23.9703 27.2273 24.012 27.2373 24.0519C27.2473 24.0918 27.2705 24.1281 27.3039 24.1564C27.3373 24.1846 27.3795 24.2034 27.425 24.2104C27.4705 24.2174 27.5173 24.2122 27.5595 24.1956C27.6017 24.179 27.6374 24.1517 27.662 24.1171C27.6867 24.0825 27.6991 24.0423 27.6979 24.0014C27.6962 23.947 27.6702 23.8954 27.6258 23.8579C27.5813 23.8203 27.5219 23.7998 27.4604 23.8009V23.8009Z" fill="white"/>
<path d="M18.0249 15.5042C17.9787 15.5049 17.9338 15.5178 17.8959 15.5412C17.8581 15.5646 17.8289 15.5974 17.8121 15.6355C17.7953 15.6736 17.7917 15.7152 17.8018 15.7552C17.8118 15.7951 17.835 15.8314 17.8684 15.8596C17.9018 15.8879 17.9439 15.9067 17.9894 15.9137C18.0349 15.9207 18.0818 15.9155 18.124 15.8989C18.1662 15.8823 18.2019 15.855 18.2265 15.8204C18.2511 15.7858 18.2636 15.7456 18.2623 15.7047C18.2606 15.6503 18.2347 15.5987 18.1902 15.5612C18.1458 15.5236 18.0863 15.5031 18.0249 15.5042V15.5042Z" fill="white"/>
<path d="M23.4099 19.5704C23.3638 19.5714 23.319 19.5845 23.2813 19.608C23.2435 19.6315 23.2145 19.6644 23.1979 19.7025C23.1813 19.7406 23.1779 19.7822 23.188 19.822C23.1981 19.8618 23.2214 19.8981 23.2549 19.9262C23.2883 19.9544 23.3304 19.9731 23.3759 19.98C23.4214 19.9869 23.4682 19.9817 23.5103 19.9651C23.5525 19.9485 23.5881 19.9211 23.6127 19.8866C23.6372 19.852 23.6497 19.8118 23.6484 19.771C23.6467 19.7164 23.6207 19.6647 23.576 19.6271C23.5313 19.5895 23.4715 19.5692 23.4099 19.5704V19.5704Z" fill="white"/>
<path d="M31.1346 32.3663C31.1336 32.3255 31.1188 32.2859 31.0922 32.2525C31.0657 32.2191 31.0285 32.1934 30.9855 32.1787C30.9424 32.164 30.8954 32.161 30.8504 32.1699C30.8054 32.1789 30.7644 32.1995 30.7326 32.2291C30.7008 32.2587 30.6797 32.296 30.6719 32.3362C30.6641 32.3765 30.6699 32.4179 30.6887 32.4552C30.7075 32.4925 30.7384 32.524 30.7774 32.5457C30.8165 32.5675 30.8619 32.5785 30.9081 32.5774C30.9697 32.5759 31.0281 32.5528 31.0706 32.5133C31.1131 32.4737 31.1361 32.4209 31.1346 32.3663V32.3663Z" fill="white"/>
<path d="M31.1704 36.4134C31.1246 36.4146 31.0802 36.4277 31.0428 36.4512C31.0054 36.4746 30.9767 36.5073 30.9603 36.5452C30.9439 36.5831 30.9406 36.6244 30.9507 36.664C30.9608 36.7036 30.9839 36.7396 31.0172 36.7675C31.0504 36.7955 31.0922 36.8141 31.1374 36.821C31.1826 36.8279 31.229 36.8228 31.2709 36.8064C31.3128 36.79 31.3483 36.7629 31.3729 36.7287C31.3974 36.6944 31.41 36.6545 31.4089 36.6139C31.4082 36.5869 31.4015 36.5602 31.3891 36.5355C31.3767 36.5108 31.3589 36.4884 31.3368 36.4698C31.3146 36.4512 31.2885 36.4366 31.2599 36.4269C31.2314 36.4172 31.201 36.4126 31.1704 36.4134V36.4134Z" fill="white"/>
<path d="M39.446 30.2621C39.3998 30.2631 39.3551 30.2761 39.3173 30.2996C39.2796 30.3231 39.2506 30.356 39.234 30.3941C39.2174 30.4322 39.2139 30.4738 39.2241 30.5137C39.2342 30.5535 39.2575 30.5898 39.2909 30.6179C39.3244 30.646 39.3665 30.6647 39.412 30.6717C39.4575 30.6786 39.5042 30.6734 39.5464 30.6568C39.5885 30.6401 39.6242 30.6128 39.6487 30.5783C39.6733 30.5437 39.6858 30.5035 39.6845 30.4626C39.6828 30.4081 39.6567 30.3564 39.612 30.3188C39.5673 30.2812 39.5076 30.2608 39.446 30.2621V30.2621Z" fill="white"/>
<path d="M30.0982 15.032C30.2263 15.032 30.3302 14.9401 30.3302 14.8267C30.3302 14.7133 30.2263 14.6214 30.0982 14.6214C29.97 14.6214 29.8661 14.7133 29.8661 14.8267C29.8661 14.9401 29.97 15.032 30.0982 15.032Z" fill="white"/>
<path d="M25.5192 27.1039C25.5424 26.7377 25.2257 26.4243 24.812 26.4039C24.3983 26.3834 24.0442 26.6636 24.0211 27.0298C23.9979 27.3959 24.3146 27.7093 24.7283 27.7298C25.142 27.7502 25.4961 27.47 25.5192 27.1039Z" fill="white"/>
<path d="M30.9508 12.3078C31.2836 12.3004 31.5467 12.0557 31.5384 11.7611C31.5301 11.4666 31.2535 11.2338 30.9207 11.2411C30.5879 11.2485 30.3249 11.4932 30.3332 11.7878C30.3415 12.0823 30.618 12.3151 30.9508 12.3078Z" fill="white"/>
<path d="M34.373 35.7744C34.3297 36.1237 34.2874 36.163 33.896 36.2187C34.2896 36.2571 34.3297 36.2945 34.3969 36.6409C34.4413 36.2926 34.4836 36.2571 34.875 36.1976C34.4804 36.1582 34.4359 36.1237 34.373 35.7744Z" fill="white"/>
<path d="M23.3025 26.1286C23.2592 26.4769 23.2169 26.5124 22.8255 26.5729C23.2191 26.6113 23.2592 26.6487 23.3275 26.9951C23.3708 26.6458 23.4131 26.6065 23.8045 26.5508C23.4099 26.5124 23.3654 26.475 23.3025 26.1286Z" fill="white"/>
<path d="M41.3813 24.9254C41.3368 25.2737 41.2945 25.3092 40.9031 25.3697C41.2978 25.4081 41.3422 25.4455 41.4051 25.7919C41.4485 25.4426 41.4908 25.4033 41.8821 25.3476C41.4886 25.3092 41.4441 25.2718 41.3813 24.9254Z" fill="white"/>
<path d="M16.907 11.5817C16.8626 11.9309 16.8203 11.9655 16.4289 12.0259C16.8235 12.0643 16.868 12.1017 16.9309 12.4481C16.9742 12.0998 17.0165 12.0643 17.4079 12.0039C17.0143 11.9655 16.9699 11.9281 16.907 11.5817Z" fill="white"/>
<path d="M39.1736 19.7968C39.9663 19.7968 40.6089 19.2281 40.6089 18.5266C40.6089 17.825 39.9663 17.2563 39.1736 17.2563C38.3809 17.2563 37.7383 17.825 37.7383 18.5266C37.7383 19.2281 38.3809 19.7968 39.1736 19.7968Z" fill="#92E3A9"/>
<path d="M35.1548 21.052L34.8372 20.9801C32.478 20.4528 31.1247 19.5562 31.1247 18.5237C31.1247 17.4904 32.4788 16.5945 34.8372 16.0672L35.1548 15.996L35.244 16.2742C35.4825 17.0027 35.788 17.7127 36.1575 18.397L36.2258 18.5237L36.1575 18.6503C35.7876 19.3356 35.4812 20.0458 35.244 20.7745L35.1548 21.052V21.052ZM34.6908 16.7147C32.8985 17.1616 31.7977 17.8433 31.7977 18.5237C31.7977 19.2025 32.8977 19.885 34.6908 20.3312C34.9103 19.7135 35.1757 19.1093 35.4828 18.5237C35.1734 17.937 34.9088 17.3327 34.6908 16.7147V16.7147ZM43.1916 21.052L43.1031 20.7731C42.8641 20.0444 42.5583 19.3343 42.1889 18.6496L42.1206 18.5237L42.1889 18.3963C42.5588 17.7124 42.8635 17.0015 43.1031 16.2728L43.1916 15.9953L43.5092 16.0664C45.8692 16.5938 47.2217 17.4897 47.2217 18.5237C47.2217 19.5569 45.8684 20.4528 43.5092 20.9801L43.1916 21.052V21.052ZM42.8619 18.5237C43.1836 19.1399 43.4513 19.7462 43.6556 20.3312C45.4487 19.885 46.5495 19.2025 46.5495 18.5237C46.5495 17.8433 45.4495 17.1623 43.6556 16.7147C43.4363 17.3325 43.1711 17.9368 42.8619 18.5237V18.5237Z" fill="#92E3A9"/>
<path d="M34.686 16.7119L34.5975 16.4344C33.9334 14.365 34.1344 12.8827 35.1499 12.3661C36.143 11.8572 37.7407 12.4586 39.414 13.9779L39.6424 14.1857L39.414 14.3927C38.8197 14.9397 38.2765 15.5285 37.7897 16.1533L37.6989 16.2685L37.5413 16.2799C36.6854 16.3394 35.8364 16.4606 35.0028 16.6421L34.686 16.7119V16.7119ZM35.958 12.7774C35.7779 12.7774 35.6187 12.8122 35.4844 12.8805C34.8187 13.22 34.7013 14.402 35.1596 15.9974C35.876 15.8572 36.5989 15.7569 37.3274 15.7007C37.7491 15.1713 38.2092 14.6666 38.7048 14.1899C37.6571 13.2883 36.668 12.7774 35.958 12.7774V12.7774ZM42.3883 24.8634C41.433 24.8634 40.206 24.2258 38.9323 23.0687L38.7048 22.8617L38.9323 22.6553C39.5268 22.1074 40.0702 21.5179 40.5574 20.8926L40.6475 20.7788L40.8035 20.7652C41.6596 20.7068 42.5089 20.5861 43.3427 20.4045L43.6604 20.3333L43.7496 20.6115C44.4106 22.6795 44.2104 24.1639 43.1964 24.6805C42.9502 24.804 42.6713 24.8672 42.3883 24.8634V24.8634ZM39.6424 22.8567C40.6893 23.7583 41.6791 24.2699 42.3883 24.2699C42.5692 24.2699 42.7284 24.2344 42.8619 24.1668C43.5285 23.8266 43.6467 22.6425 43.1868 21.047C42.4711 21.1879 41.7474 21.289 41.0173 21.3452C40.5974 21.8754 40.138 22.3804 39.6424 22.8567V22.8567Z" fill="#92E3A9"/>
<path d="M43.6604 16.7119L43.3428 16.6415C42.509 16.4593 41.6597 16.3382 40.8035 16.2792L40.6475 16.2671L40.5574 16.1519C40.0709 15.5268 39.5274 14.938 38.9323 14.3913L38.7048 14.1842L38.9323 13.9779C40.6048 12.4593 42.2018 11.858 43.1964 12.3661C44.2112 12.8834 44.413 14.3657 43.7496 16.4344L43.6604 16.7119ZM41.0173 15.7007C41.7844 15.7612 42.5113 15.8629 43.1868 15.9974C43.6459 14.402 43.5285 13.22 42.8619 12.8799C42.1993 12.5404 40.9522 13.0599 39.6424 14.1899C40.1377 14.6667 40.5976 15.1705 41.0173 15.7007ZM35.958 24.8635C35.6751 24.867 35.3962 24.8039 35.1499 24.6806C34.1344 24.1639 33.9334 22.6802 34.5967 20.6116L34.6836 20.3333L35.0012 20.4045C35.7763 20.5774 36.6303 20.6991 37.5405 20.7653L37.6965 20.7788L37.7873 20.8926C38.273 21.5174 38.8166 22.1074 39.4116 22.6553L39.6399 22.8617L39.4116 23.0688C38.1387 24.2266 36.9117 24.8635 35.958 24.8635V24.8635ZM35.1596 21.0478C34.7013 22.6432 34.8187 23.8273 35.4844 24.1675C36.1478 24.502 37.3909 23.986 38.7048 22.8567C38.2094 22.3798 37.7494 21.8752 37.3274 21.3459C36.5982 21.2889 35.874 21.1893 35.1596 21.0478V21.0478Z" fill="#92E3A9"/>
<path d="M39.1737 21.4214C38.6213 21.4214 38.0544 21.4007 37.4851 21.3588L37.3275 21.3467L37.2366 21.2314C36.9156 20.8228 36.6135 20.4029 36.3312 19.9725C36.051 19.541 35.7905 19.0997 35.5505 18.6496L35.4829 18.5237L35.5505 18.3963C35.7909 17.9466 36.0506 17.5054 36.3312 17.0741C36.6102 16.65 36.915 16.2259 37.2366 15.8146L37.3275 15.7007L37.4851 15.6879C38.6083 15.6046 39.7374 15.6046 40.8606 15.6879L41.0166 15.7014L41.1075 15.8153C41.7506 16.6328 42.3154 17.4963 42.7961 18.397L42.8628 18.5244L42.7961 18.6504C42.3167 19.5517 41.7519 20.4153 41.1075 21.2321L41.0166 21.3474L40.8606 21.3595C40.2929 21.4 39.7253 21.4214 39.1737 21.4214V21.4214ZM37.699 20.7781C38.692 20.8443 39.6553 20.8443 40.6475 20.7781C41.2015 20.0602 41.6939 19.3066 42.1206 18.5237C41.6954 17.74 41.2029 16.9864 40.6475 16.2693C39.6661 16.2024 38.6804 16.2024 37.699 16.2693C37.1431 16.9861 36.6506 17.7398 36.2259 18.5237C36.6536 19.3062 37.1459 20.0597 37.699 20.7781V20.7781Z" fill="#92E3A9"/>
<path d="M34.4644 32.7853H36.0196C36.827 32.7853 37.3122 32.4256 37.3122 31.8363C37.3122 31.3998 36.9716 31.0773 36.46 31.0306V30.991C36.8324 30.9355 37.1233 30.6226 37.1233 30.2717C37.1233 29.7568 36.6959 29.436 35.9856 29.436H34.4644V32.7853ZM35.052 30.8544V29.8772H35.8487C36.2841 29.8772 36.5388 30.0582 36.5388 30.3672C36.5388 30.6848 36.2685 30.8544 35.7493 30.8544H35.052ZM35.052 32.3444V31.2651H35.8674C36.4206 31.2651 36.712 31.4485 36.712 31.799C36.712 32.1539 36.4314 32.3444 35.9015 32.3444H35.052V32.3444Z" fill="#92E3A9"/>
<path d="M32.1989 29.6166C32.1989 29.1964 32.3875 28.7934 32.7232 28.4963C33.0589 28.1992 33.5143 28.0322 33.9891 28.0322H37.5695C38.0443 28.0322 38.4997 28.1992 38.8354 28.4963C39.1712 28.7934 39.3598 29.1964 39.3598 29.6166V32.7853C39.3598 33.2055 39.1712 33.6085 38.8354 33.9056C38.4997 34.2027 38.0443 34.3697 37.5695 34.3697H33.9891C33.5143 34.3697 33.0589 34.2027 32.7232 33.9056C32.3875 33.6085 32.1989 33.2055 32.1989 32.7853V29.6166ZM33.9891 28.4283C33.633 28.4283 33.2915 28.5535 33.0397 28.7764C32.7879 28.9992 32.6464 29.3014 32.6464 29.6166V32.7853C32.6464 33.1004 32.7879 33.4027 33.0397 33.6255C33.2915 33.8484 33.633 33.9736 33.9891 33.9736H37.5695C37.9256 33.9736 38.2672 33.8484 38.519 33.6255C38.7708 33.4027 38.9122 33.1004 38.9122 32.7853V29.6166C38.9122 29.3014 38.7708 28.9992 38.519 28.7764C38.2672 28.5535 37.9256 28.4283 37.5695 28.4283H33.9891Z" fill="#92E3A9"/>
<path d="M23.4386 12.4466C23.5502 12.5753 23.7167 12.6594 23.903 12.6815C24.0892 12.7035 24.2808 12.6617 24.4376 12.5647C24.6 12.4672 24.7155 12.3207 24.7602 12.1553C24.8049 11.99 24.7756 11.8185 24.6781 11.6761L24.6645 11.6567C24.557 11.5148 24.3873 11.4179 24.1928 11.3873C23.9982 11.3567 23.7946 11.3949 23.6268 11.4935C23.4522 11.6024 23.3487 11.7459 23.3016 11.8906C22.2973 11.9761 21.378 11.7818 20.3685 11.2773C19.6925 10.9371 19.1942 10.4593 18.9107 9.88472C18.6753 9.40275 18.6673 8.92994 18.8928 8.51331C19.2389 7.88664 19.8296 7.52322 20.6256 7.45295C21.103 7.41453 21.5799 7.47184 22.0195 7.62043C22.1688 7.45874 22.3323 7.30723 22.5086 7.16734C20.314 6.40144 18.773 7.44491 18.2983 8.30119C17.9567 8.93327 18.0538 9.78921 18.5568 10.5095C18.6911 10.7019 18.8489 10.8948 19.0433 11.0605C20.1985 12.1543 21.7427 12.6175 23.4244 12.4481L23.4386 12.4466V12.4466Z" fill="#92E3A9"/>
<path d="M26.0956 13.5466C26.5824 12.2524 26.3707 10.8554 25.4989 9.60687L25.3848 9.4434C25.5327 9.25038 25.5297 8.99364 25.3819 8.7819L25.3717 8.7673C25.1609 8.46552 24.6974 8.39337 24.3562 8.59345C24.031 8.78417 23.9255 9.18041 24.1303 9.47368L24.147 9.49761C24.224 9.59894 24.333 9.67814 24.4611 9.72573C24.5891 9.77331 24.7307 9.78726 24.8688 9.76591L24.9932 9.94397C25.5098 10.6838 25.7504 11.5202 25.7096 12.4253C25.6812 13.1168 25.4397 13.7343 24.9964 14.2486C24.6407 14.6813 24.1698 14.926 23.6583 14.9608C22.8589 15.0196 22.2164 14.7337 21.791 14.1245C21.5227 13.7403 21.3993 13.2899 21.3646 13.0432C21.1747 12.9885 20.8575 12.8957 20.6493 12.8167C20.7235 13.3602 20.8944 13.8575 21.1825 14.27C21.8364 15.2066 22.9301 15.5692 23.7014 15.5134C24.5665 15.4377 25.6671 14.8033 26.1097 13.5456L26.0956 13.5466V13.5466Z" fill="#92E3A9"/>
<path d="M21.0015 9.3243C20.6812 9.51229 20.5791 9.90518 20.7836 10.198L20.7971 10.2174C20.8492 10.2884 20.917 10.3493 20.9964 10.3966C21.0757 10.444 21.1651 10.4768 21.2593 10.4931C21.3535 10.5094 21.4505 10.5089 21.5447 10.4916C21.6389 10.4743 21.7283 10.4406 21.8077 10.3925C22.1345 10.2138 22.2325 9.81589 22.0285 9.52386L22.015 9.50444C22.0014 9.48503 21.9817 9.45672 21.9546 9.43798C22.4398 8.62377 23.1403 8.00869 24.0654 7.58943C24.7569 7.26378 25.468 7.13925 26.1885 7.22203C26.7976 7.28572 27.3771 7.71668 27.6457 8.07952C28.3897 9.10128 27.2246 10.3343 26.6651 10.6861L26.8366 11.2541C28.546 10.1666 28.8011 8.67784 28.149 7.7439C27.5373 6.8678 26.2481 6.45498 24.9577 6.71074C23.2305 7.0394 22.073 8.07654 21.3645 9.21854C21.2603 9.20957 21.1151 9.24931 21.0015 9.3243V9.3243Z" fill="#92E3A9"/>
<path d="M16.265 37.2215C16.1261 37.2215 15.9963 37.1874 15.875 37.1285L14.6429 36.4622C14.4585 36.3688 14.551 36.3347 14.6066 36.3177C14.8571 36.2417 14.9036 36.2252 15.1628 36.0908C15.191 36.0738 15.2279 36.0816 15.2562 36.0986L16.2009 36.614C16.2383 36.6306 16.2847 36.6306 16.3125 36.614L20.0099 34.6642C20.0473 34.6477 20.0655 34.6136 20.0655 34.5713V30.679C20.0655 30.6371 20.0473 30.6031 20.0099 30.5865L16.3125 28.645C16.2756 28.6279 16.2292 28.6279 16.2009 28.645L12.5025 30.586C12.4656 30.6026 12.4469 30.6454 12.4469 30.6785V34.5703C12.4469 34.6039 12.4656 34.6467 12.5025 34.6633L13.5129 35.1957C14.0595 35.4479 14.403 35.152 14.403 34.8575V31.0168C14.403 30.9662 14.4489 30.9151 14.5141 30.9151H14.987C15.0415 30.9151 15.0981 30.9574 15.0981 31.0168V34.858C15.0981 35.5248 14.7 35.9136 14.0049 35.9136C13.7917 35.9136 13.625 35.9136 13.1522 35.7019L12.1797 35.1962C12.0612 35.1335 11.9629 35.0435 11.8945 34.9353C11.8262 34.8271 11.7902 34.7044 11.7902 34.5795V30.6873C11.7902 30.4342 11.9382 30.1976 12.1797 30.0711L15.8756 28.1213C15.9955 28.0628 16.1295 28.0322 16.2655 28.0322C16.4016 28.0322 16.5356 28.0628 16.6555 28.1213L20.3519 30.0711C20.5939 30.1972 20.7414 30.4342 20.7414 30.6873V34.5795C20.7414 34.8322 20.5934 35.0687 20.3519 35.1962L16.6555 37.1456C16.5338 37.1962 16.3949 37.2215 16.265 37.2215V37.2215ZM17.4047 34.545C15.7831 34.545 15.4497 33.8695 15.4497 33.2961C15.4497 33.2455 15.4962 33.1944 15.5608 33.1944H16.0428C16.0983 33.1944 16.1443 33.228 16.1443 33.2791C16.2186 33.7259 16.4312 33.9459 17.4143 33.9459C18.1923 33.9459 18.5267 33.7848 18.5267 33.4051C18.5267 33.1856 18.4332 33.0255 17.2198 32.916C16.21 32.8239 15.58 32.6201 15.58 31.8861C15.58 31.2027 16.21 30.7973 17.2668 30.7973C18.4524 30.7973 19.0364 31.1696 19.1102 31.979C19.1093 32.0063 19.0994 32.0328 19.0819 32.055C19.0632 32.0715 19.0359 32.0886 19.0081 32.0886H18.5267C18.5029 32.0881 18.4799 32.0804 18.4615 32.0668C18.443 32.0531 18.43 32.0342 18.4247 32.0131C18.313 31.5474 18.0261 31.3964 17.2668 31.3964C16.4136 31.3964 16.3115 31.6666 16.3115 31.869C16.3115 32.1134 16.4312 32.1893 17.5815 32.3246C18.7212 32.4595 19.2587 32.6537 19.2587 33.3803C19.2486 34.1235 18.5823 34.545 17.4047 34.545V34.545Z" fill="#92E3A9"/>
</g>
<defs>
<filter id="filter0_d" x="0.391306" y="0.630436" width="51.7391" height="51.7391" filterUnits="userSpaceOnUse" color-interpolation-filters="sRGB">
<feFlood flood-opacity="0" result="BackgroundImageFix"/>
<feColorMatrix in="SourceAlpha" type="matrix" values="0 0 0 0 0 0 0 0 0 0 0 0 0 0 0 0 0 0 127 0"/>
<feOffset dx="0.76087"/>
<feGaussianBlur stdDeviation="4.18478"/>
<feColorMatrix type="matrix" values="0 0 0 0 0 0 0 0 0 0 0 0 0 0 0 0 0 0 0.1 0"/>
<feBlend mode="normal" in2="BackgroundImageFix" result="effect1_dropShadow"/>
<feBlend mode="normal" in="SourceGraphic" in2="effect1_dropShadow" result="shape"/>
</filter>
<filter id="filter1_d" x="2.39131" y="2.63044" width="47.8891" height="47.8891" filterUnits="userSpaceOnUse" color-interpolation-filters="sRGB">
<feFlood flood-opacity="0" result="BackgroundImageFix"/>
<feColorMatrix in="SourceAlpha" type="matrix" values="0 0 0 0 0 0 0 0 0 0 0 0 0 0 0 0 0 0 127 0"/>
<feOffset dx="0.76087"/>
<feGaussianBlur stdDeviation="4.18478"/>
<feColorMatrix type="matrix" values="0 0 0 0 0 0 0 0 0 0 0 0 0 0 0 0 0 0 0.1 0"/>
<feBlend mode="normal" in2="BackgroundImageFix" result="effect1_dropShadow"/>
<feBlend mode="normal" in="SourceGraphic" in2="effect1_dropShadow" result="shape"/>
</filter>
</defs>
</svg>
